<svg xmlns="http://www.w3.org/2000/svg" width="312" height="50" viewBox="0 0 312 50" fill="none"><path d="M212.835 41.7952H213.874V49.7922H212.835V41.7952ZM212.576 38.6275C212.576 38.4087 212.651 38.2236 212.801 38.0733C212.95 37.9236 213.135 37.8482 213.355 37.8482C213.574 37.8482 213.758 37.9236 213.908 38.0733C214.059 38.2236 214.134 38.4087 214.134 38.6275C214.134 38.8466 214.059 39.0316 213.908 39.1814C213.758 39.3314 213.574 39.4064 213.355 39.4064C213.135 39.4064 212.95 39.3314 212.801 39.1814C212.651 39.0316 212.576 38.8466 212.576 38.6275" fill="white"></path><path d="M216.816 44.0453C216.816 43.8956 216.81 43.714 216.799 43.5002C216.788 43.2867 216.779 43.0701 216.773 42.851C216.767 42.6322 216.758 42.4268 216.747 42.2367C216.736 42.0464 216.73 41.8989 216.73 41.7951H217.768C217.78 42.0955 217.788 42.3833 217.794 42.6606C217.8 42.9376 217.814 43.1167 217.838 43.1973H217.89C218.097 42.7588 218.444 42.3812 218.928 42.0633C219.413 41.7463 219.978 41.5875 220.624 41.5875C221.247 41.5875 221.755 41.6857 222.148 41.8817C222.54 42.0783 222.849 42.3346 223.074 42.6519C223.299 42.9691 223.455 43.3358 223.541 43.7512C223.628 44.1666 223.671 44.5936 223.671 45.0321V49.7921H222.632V45.0844C222.632 44.7611 222.603 44.4467 222.546 44.1404C222.488 43.8347 222.387 43.5608 222.243 43.3186C222.099 43.076 221.897 42.8829 221.637 42.7384C221.377 42.5943 221.04 42.5221 220.624 42.5221C220.244 42.5221 219.883 42.5887 219.543 42.7209C219.202 42.8538 218.908 43.0563 218.66 43.327C218.412 43.598 218.215 43.9387 218.071 44.3482C217.927 44.7583 217.855 45.2397 217.855 45.7936V49.7921H216.816V44.0453Z" fill="white"></path><path d="M226.458 47.7497C226.677 48.1767 227 48.5027 227.427 48.7278C227.854 48.9528 228.304 49.0654 228.777 49.0654C228.996 49.0654 229.216 49.0307 229.435 48.9616C229.654 48.8919 229.851 48.7943 230.024 48.6668C230.197 48.5402 230.338 48.3874 230.448 48.2086C230.557 48.0295 230.612 47.825 230.612 47.5937C230.612 47.2246 230.494 46.9476 230.257 46.7629C230.021 46.5785 229.73 46.4341 229.383 46.3303C229.037 46.2265 228.656 46.1371 228.241 46.0618C227.825 45.9868 227.445 45.8714 227.098 45.7161C226.752 45.5598 226.46 45.3435 226.224 45.0668C225.987 44.7896 225.869 44.3973 225.869 43.8897C225.869 43.4977 225.95 43.157 226.112 42.8681C226.273 42.58 226.484 42.3405 226.744 42.1502C227.003 41.9595 227.294 41.8182 227.618 41.726C227.94 41.6338 228.27 41.5875 228.604 41.5875C229.262 41.5875 229.83 41.7088 230.309 41.9507C230.788 42.193 231.16 42.5743 231.426 43.0935L230.491 43.6474C230.294 43.2779 230.05 42.9982 229.755 42.8078C229.461 42.6171 229.077 42.5221 228.604 42.5221C228.419 42.5221 228.226 42.5509 228.025 42.6084C227.822 42.6665 227.641 42.7472 227.479 42.851C227.317 42.9547 227.182 43.0876 227.072 43.2489C226.963 43.4108 226.908 43.5952 226.908 43.8028C226.908 44.1607 227.026 44.4264 227.263 44.5992C227.499 44.7721 227.791 44.9084 228.137 45.0059C228.483 45.1043 228.864 45.1881 229.28 45.2572C229.695 45.3263 230.076 45.4388 230.422 45.5948C230.768 45.7501 231.059 45.9752 231.296 46.27C231.533 46.5641 231.651 46.9823 231.651 47.5247C231.651 47.9401 231.573 48.3008 231.417 48.6065C231.261 48.9122 231.047 49.1691 230.776 49.3767C230.505 49.5846 230.197 49.7399 229.851 49.8443C229.505 49.9481 229.141 50 228.76 50C228.068 50 227.436 49.8671 226.865 49.6021C226.293 49.3364 225.852 48.9266 225.54 48.3727L226.458 47.7497Z" fill="white"></path><path d="M240.582 47.542C240.582 47.6924 240.588 47.8737 240.6 48.0872C240.611 48.3007 240.62 48.5173 240.626 48.7364C240.631 48.9558 240.64 49.1606 240.652 49.3506C240.663 49.541 240.669 49.6885 240.669 49.7923H239.631C239.619 49.4922 239.61 49.2034 239.604 48.9268C239.599 48.6498 239.584 48.4707 239.561 48.3901H239.509C239.301 48.8286 238.955 49.2068 238.471 49.5238C237.986 49.8411 237.42 49.9998 236.775 49.9998C236.151 49.9998 235.641 49.9017 235.242 49.7057C234.844 49.5097 234.533 49.2528 234.308 48.9355C234.083 48.6182 233.93 48.2516 233.849 47.8362C233.768 47.4208 233.728 46.9938 233.728 46.5552V41.7953H234.767V46.503C234.767 46.8269 234.795 47.1413 234.853 47.447C234.911 47.7527 235.012 48.0265 235.156 48.2688C235.3 48.5113 235.502 48.7045 235.761 48.8489C236.022 48.9933 236.359 49.0652 236.775 49.0652C237.155 49.0652 237.516 48.9993 237.856 48.8664C238.196 48.7336 238.491 48.5317 238.739 48.2603C238.987 47.9893 239.183 47.6486 239.327 47.2391C239.471 46.8297 239.544 46.3477 239.544 45.7938V41.7953H240.582V47.542Z" fill="white"></path><path d="M243.438 44.0453C243.438 43.8955 243.433 43.7139 243.421 43.5001C243.41 43.2866 243.401 43.07 243.395 42.8509C243.389 42.6321 243.381 42.4267 243.369 42.2367C243.358 42.0463 243.352 41.8988 243.352 41.795H244.391C244.402 42.0954 244.411 42.3833 244.417 42.6605C244.422 42.9375 244.437 43.1166 244.46 43.1972C244.725 42.7243 245.066 42.3373 245.481 42.0376C245.897 41.7375 246.404 41.5875 247.004 41.5875C247.108 41.5875 247.209 41.5962 247.307 41.6134C247.405 41.6303 247.506 41.6506 247.61 41.6737L247.489 42.6952C247.351 42.649 247.218 42.6258 247.091 42.6258C246.641 42.6258 246.251 42.6984 245.923 42.8422C245.594 42.9866 245.322 43.1857 245.109 43.4395C244.895 43.6936 244.737 43.9906 244.633 44.3307C244.529 44.6717 244.477 45.0377 244.477 45.43V49.7921H243.438V44.0453Z" fill="white"></path><path d="M253.34 45.7763C252.901 45.7763 252.477 45.8053 252.067 45.8629C251.658 45.9207 251.288 46.0188 250.96 46.1573C250.631 46.2955 250.368 46.4805 250.172 46.7109C249.975 46.9422 249.878 47.2304 249.878 47.5764C249.878 47.8187 249.932 48.0353 250.042 48.2253C250.152 48.4163 250.293 48.5717 250.466 48.693C250.639 48.8142 250.832 48.9068 251.046 48.9702C251.259 49.0334 251.476 49.0652 251.695 49.0652C252.249 49.0652 252.705 48.9846 253.063 48.823C253.42 48.6617 253.706 48.4504 253.919 48.1913C254.133 47.9312 254.28 47.6371 254.361 47.3082C254.441 46.9794 254.482 46.6474 254.482 46.313V45.7763H253.34ZM255.417 46.4339C255.417 46.8269 255.42 47.1782 255.425 47.4898C255.431 47.8015 255.44 48.0903 255.451 48.3554C255.463 48.6211 255.477 48.8692 255.495 49.0996C255.512 49.3309 255.538 49.5613 255.573 49.7923H254.603C254.534 49.4 254.499 48.9674 254.499 48.4938H254.465C254.165 49.013 253.793 49.3941 253.348 49.6363C252.904 49.8786 252.341 49.9998 251.66 49.9998C251.314 49.9998 250.974 49.9564 250.639 49.8698C250.304 49.7835 250.004 49.6448 249.739 49.4547C249.474 49.2643 249.257 49.0193 249.09 48.7189C248.923 48.4191 248.839 48.0553 248.839 47.6286C248.839 47.0169 248.995 46.5321 249.306 46.1742C249.618 45.8169 250.002 45.5487 250.457 45.3696C250.913 45.1908 251.398 45.0755 251.911 45.0233C252.425 44.9717 252.878 44.9454 253.27 44.9454H254.482V44.4606C254.482 43.7686 254.268 43.2725 253.842 42.9721C253.415 42.6724 252.878 42.522 252.232 42.522C251.308 42.522 250.495 42.8224 249.791 43.4222L249.185 42.7124C249.566 42.3432 250.039 42.0631 250.605 41.8728C251.17 41.6827 251.712 41.5874 252.232 41.5874C253.201 41.5874 253.974 41.8153 254.552 42.2713C255.128 42.7274 255.417 43.4629 255.417 44.4781V46.4339Z" fill="white"></path><path d="M258.186 44.0453C258.186 43.8955 258.18 43.7139 258.169 43.5001C258.158 43.2866 258.149 43.07 258.143 42.8509C258.137 42.6321 258.128 42.4267 258.117 42.2367C258.106 42.0463 258.1 41.8988 258.1 41.795H259.138C259.15 42.0954 259.158 42.3833 259.164 42.6605C259.17 42.9375 259.184 43.1166 259.208 43.1972H259.26C259.467 42.7587 259.814 42.3811 260.298 42.0632C260.783 41.7463 261.348 41.5875 261.994 41.5875C262.617 41.5875 263.125 41.6856 263.518 41.8816C263.91 42.0782 264.219 42.3345 264.444 42.6518C264.669 42.9691 264.825 43.3357 264.911 43.7511C264.998 44.1666 265.041 44.5935 265.041 45.0321V49.7921H264.002V45.0843C264.002 44.7611 263.973 44.4466 263.916 44.1403C263.858 43.8346 263.757 43.5608 263.613 43.3185C263.469 43.076 263.267 42.8828 263.007 42.7384C262.747 42.5943 262.41 42.5221 261.994 42.5221C261.614 42.5221 261.253 42.5887 260.913 42.7209C260.572 42.8537 260.278 43.0563 260.03 43.327C259.782 43.598 259.585 43.9387 259.441 44.3482C259.297 44.7583 259.225 45.2396 259.225 45.7935V49.7921H258.186V44.0453Z" fill="white"></path><path d="M274.51 48.6152C274.117 49.0884 273.672 49.4373 273.176 49.6623C272.68 49.8874 272.144 49.9999 271.567 49.9999C270.955 49.9999 270.39 49.8961 269.87 49.6883C269.351 49.4807 268.907 49.1894 268.538 48.8143C268.168 48.4395 267.88 47.995 267.672 47.4811C267.464 46.9679 267.361 46.4056 267.361 45.7935C267.361 45.1821 267.464 44.6195 267.672 44.1062C267.88 43.5926 268.168 43.1485 268.538 42.7731C268.907 42.3983 269.351 42.1066 269.87 41.8991C270.39 41.6912 270.955 41.5874 271.567 41.5874C272.155 41.5874 272.701 41.7087 273.203 41.9507C273.704 42.1932 274.152 42.5336 274.544 42.9722L273.713 43.5951C273.413 43.261 273.084 42.9981 272.727 42.8081C272.369 42.6171 271.982 42.5221 271.567 42.5221C271.082 42.5221 270.643 42.6083 270.251 42.7818C269.859 42.9547 269.524 43.1885 269.247 43.4826C268.97 43.7774 268.76 44.1231 268.616 44.5216C268.471 44.9195 268.399 45.3434 268.399 45.7935C268.399 46.2436 268.471 46.6678 268.616 47.0657C268.76 47.4643 268.97 47.81 269.247 48.1047C269.524 48.3989 269.859 48.6327 270.251 48.8055C270.643 48.9787 271.082 49.0653 271.567 49.0653C272.005 49.0653 272.406 48.9643 272.77 48.7624C273.133 48.5605 273.447 48.292 273.713 47.9575L274.51 48.6152Z" fill="white"></path><path d="M282.402 45.1184C282.402 44.7612 282.33 44.4264 282.186 44.1144C282.041 43.8028 281.845 43.529 281.597 43.2924C281.349 43.056 281.055 42.8682 280.715 42.7297C280.374 42.5915 280.014 42.5218 279.633 42.5218C279.067 42.5218 278.597 42.6375 278.222 42.8682C277.847 43.0992 277.55 43.3649 277.331 43.6646C277.111 43.9647 276.955 44.2557 276.863 44.5389C276.771 44.8215 276.725 45.0147 276.725 45.1184H282.402ZM283.199 48.2861C282.795 48.8982 282.296 49.3364 281.701 49.6018C281.107 49.8672 280.452 50 279.737 50C279.125 50 278.571 49.8959 278.075 49.6884C277.578 49.4808 277.152 49.1895 276.794 48.8141C276.436 48.4393 276.162 47.9951 275.972 47.4812C275.781 46.9677 275.686 46.3994 275.686 45.7761C275.686 45.1763 275.784 44.6224 275.981 44.1144C276.177 43.6068 276.453 43.1654 276.811 42.7907C277.169 42.4159 277.59 42.1211 278.075 41.9076C278.56 41.6941 279.096 41.5875 279.685 41.5875C280.296 41.5875 280.836 41.6941 281.303 41.9076C281.77 42.1211 282.163 42.4037 282.48 42.7557C282.798 43.1079 283.037 43.5087 283.199 43.9588C283.36 44.4089 283.441 44.8649 283.441 45.326V46.0534H276.725C276.725 46.2728 276.768 46.5522 276.855 46.893C276.941 47.2334 277.1 47.5653 277.331 47.8882C277.562 48.2114 277.87 48.4881 278.257 48.719C278.643 48.9497 279.142 49.0654 279.754 49.0654C280.285 49.0654 280.798 48.9382 281.295 48.6844C281.79 48.4305 282.171 48.0845 282.437 47.646L283.199 48.2861Z" fill="white"></path><path d="M22.0216 6.34937V41.3583H17.6595V30.8344C15.8806 31.7537 13.9526 32.231 11.8693 32.231C8.3265 32.231 5.46014 31.0957 3.27677 28.8232C3.24176 28.7857 3.21895 28.7404 3.18581 28.7029H11.8565H11.8693C12.2819 28.7029 12.6826 28.6738 13.0705 28.6116C15.7584 28.1859 17.6595 25.7309 17.6595 23.0102V15.0428C17.6595 12.3118 15.7521 9.84402 13.054 9.4186C12.6723 9.35858 12.2781 9.32982 11.8693 9.32982C9.72498 9.32982 7.94453 10.1328 6.53135 11.737C5.11599 13.3412 4.41019 15.763 4.41019 19.0048C4.41019 21.5864 4.87718 23.6307 5.77585 25.1789H1.04995C0.373843 23.419 0 21.3832 0 19.0048C0 14.3186 1.30377 10.8468 3.90818 8.59088C6.0853 6.71666 8.73754 5.77861 11.8693 5.77861C14.0608 5.77861 15.9722 6.28498 17.6595 7.1899V6.34937H22.0216Z" fill="white"></path><path d="M45.5678 6.83056V16.1695C45.5678 16.1695 43.9927 17.7802 43.4525 18.3007C42.9193 18.8158 41.2776 20.2787 41.2776 20.2787V6.83056H45.5678ZM45.5649 21.2249V32.183H41.2754V30.1696C36.6123 34.2332 30.7909 32.6003 29.4089 31.861C28.0261 31.1224 26.441 29.8436 25.8452 28.5408C25.2498 27.2376 24.9531 25.349 24.9531 22.8709V6.83056H29.2427V22.8709C29.2427 25.0146 29.7056 26.5753 30.6352 27.553C31.5651 28.5302 32.8808 29.0181 34.5806 29.0181C38.555 29.0181 45.5649 21.2249 45.5649 21.2249" fill="white"></path><path d="M72.2195 18.5509C72.2195 21.8074 71.7319 24.3683 70.7538 26.236C69.7764 28.104 68.3529 29.5521 66.4874 30.5858C64.6213 31.6177 62.5833 32.1344 60.3755 32.1344C56.8328 32.1344 53.967 30.9988 51.7837 28.7263C51.7483 28.6891 51.7249 28.6435 51.6921 28.606H60.3609V28.6041C60.3649 28.6041 60.3693 28.606 60.3737 28.606C62.503 28.606 64.275 27.7945 65.6881 26.176C67.1038 24.5546 67.8087 22.0852 67.8087 18.7647C67.8087 15.6333 67.0994 13.2608 65.6781 11.6504C64.2565 10.0375 62.4883 9.23071 60.3755 9.23071C58.2312 9.23071 56.4511 10.0337 55.0376 11.6379C53.6223 13.2424 52.9165 15.6639 52.9165 18.9057C52.9165 21.4892 53.3856 23.5319 54.2843 25.0801H49.5584C48.882 23.3202 48.5085 21.2844 48.5085 18.9057C48.5085 14.2195 49.8116 10.7473 52.4163 8.49146C54.5913 6.61817 57.2454 5.67981 60.3755 5.67981C63.8539 5.67981 66.699 6.81916 68.9068 9.09787C71.1152 11.3788 72.2195 14.5289 72.2195 18.5509Z" fill="white"></path><path d="M84.998 28.1209C85.4006 28.1209 85.9342 28.0728 86.5503 27.994V31.9022C85.7285 32.0347 84.9483 32.126 84.2597 32.126C82.7024 32.126 81.4949 31.8791 80.6381 31.3874C79.7786 30.8935 79.175 30.2462 78.8264 29.445C78.4773 28.6436 78.3029 26.9544 78.3029 24.3809V13.1555H82.5702V24.6219C82.5702 25.8441 82.6449 26.6305 82.7959 26.9816C82.9478 27.3298 83.1922 27.608 83.5351 27.8133C83.8755 28.019 84.3653 28.1228 84.998 28.1209ZM86.8826 6.48322V9.82H75.1589V6.48322H78.3029V0.217556L78.6639 2.61285e-07H82.5702V6.48322H86.8826Z" fill="white"></path><path d="M108.636 16.4586C108.445 14.3271 107.905 12.7314 107.015 11.6668C105.648 10.0148 103.876 9.18864 101.7 9.18864C99.7291 9.18864 98.0725 9.84912 96.7296 11.1666C95.3871 12.4867 94.6444 14.2506 94.5006 16.4586H108.636ZM108.345 23.9693H113.011C112.309 26.5446 111.02 28.5458 109.136 29.9714C107.246 31.3993 104.83 32.1151 101.891 32.1151C98.1887 32.1151 95.2542 30.9776 93.0853 28.6974C91.8756 27.4249 91.06 25.8207 90.5309 23.9715H95.1402C95.5178 24.8908 95.991 25.7129 96.6221 26.3724C98.035 27.8503 99.7995 28.5889 101.912 28.5889C103.485 28.5889 104.828 28.1741 105.94 27.3483C106.926 26.6178 107.721 25.474 108.345 23.9693M113.163 18.8414C113.163 19.0943 113.154 19.4766 113.139 19.9845H89.8935C89.881 19.6835 89.8313 19.4141 89.8313 19.1027C89.8313 14.8463 90.9272 11.5424 93.1162 9.18864C95.3105 6.83741 98.1528 5.66274 101.648 5.66274C105.033 5.66274 107.797 6.81459 109.943 9.11831C112.089 11.4217 113.16 14.6638 113.163 18.8414Z" fill="white"></path><path d="M149.173 20.6579C149.706 20.1431 151.348 18.6799 151.348 18.6799V32.128H147.058V22.789C147.058 22.789 147.073 22.7744 147.077 22.7706C147.177 22.6709 148.65 21.1621 149.173 20.6579ZM167.675 16.0902V32.128H163.385L163.385 16.0883C163.385 13.944 162.922 12.3833 161.993 11.4061C161.063 10.4284 159.747 9.94077 158.047 9.94077C156.113 9.94077 153.465 11.7859 151.251 13.6805C148.978 15.6232 147.178 17.603 147.079 17.7128C147.075 17.7171 147.06 17.7337 147.06 17.7337L147.079 17.468V16.0048C147.079 13.8611 146.616 12.3007 145.686 11.3227C144.757 10.3456 143.441 9.85794 141.741 9.85794C139.836 9.85794 137.237 11.6487 135.044 13.5123V32.0452H130.755V22.7062C130.755 22.7062 130.756 20.2203 130.76 17.6443L130.755 17.6509V6.77809H135.044V8.70608C139.708 4.64442 145.529 6.27546 146.911 7.0144C148.079 7.63706 149.358 8.65419 150.097 9.73947C150.584 9.37219 151.041 9.02741 151.348 8.78891C156.242 5.00576 161.833 6.35892 163.215 7.09755C164.597 7.83617 166.182 9.11493 166.778 10.4178C167.376 11.7215 167.673 13.6101 167.675 16.0902" fill="white"></path><path d="M189.435 16.4586C189.244 14.3271 188.704 12.7314 187.814 11.6668C186.447 10.0148 184.674 9.18864 182.499 9.18864C180.528 9.18864 178.871 9.84912 177.529 11.1666C176.186 12.4867 175.443 14.2506 175.3 16.4586H189.435ZM189.144 23.9693H193.81C193.108 26.5446 191.819 28.5458 189.935 29.9714C188.045 31.3993 185.628 32.1151 182.69 32.1151C178.988 32.1151 176.053 30.9776 173.885 28.6974C172.675 27.4249 171.859 25.8207 171.33 23.9715H175.939C176.317 24.8908 176.79 25.7129 177.421 26.3724C178.834 27.8503 180.598 28.5889 182.711 28.5889C184.284 28.5889 185.627 28.1741 186.739 27.3483C187.725 26.6178 188.52 25.474 189.144 23.9693M193.962 18.8414C193.962 19.0943 193.953 19.4766 193.938 19.9845H170.692C170.68 19.6835 170.63 19.4141 170.63 19.1027C170.63 14.8463 171.726 11.5424 173.915 9.18864C176.109 6.83741 178.952 5.66274 182.447 5.66274C185.832 5.66274 188.596 6.81459 190.742 9.11831C192.888 11.4217 193.959 14.6638 193.962 18.8414Z" fill="white"></path><path d="M230.358 16.4586C230.167 14.3271 229.627 12.7314 228.737 11.6667C227.369 10.0148 225.597 9.18861 223.422 9.18861C221.451 9.18861 219.794 9.84909 218.451 11.1666C217.109 12.4866 216.366 14.2505 216.223 16.4586H230.358ZM230.068 23.9693H234.732C234.031 26.5446 232.742 28.5457 230.858 29.9714C228.967 31.3993 226.552 32.1151 223.613 32.1151C219.91 32.1151 216.976 30.9776 214.807 28.6973C213.597 27.4248 212.782 25.8207 212.252 23.9714H216.862C217.24 24.8907 217.713 25.7128 218.344 26.3724C219.757 27.8502 221.521 28.5889 223.634 28.5889C225.207 28.5889 226.549 28.1741 227.662 27.3482C228.648 26.6177 229.442 25.474 230.068 23.9693M234.884 18.8414C234.884 19.0943 234.876 19.4765 234.861 19.9845H211.616C211.603 19.6835 211.553 19.414 211.553 19.1027C211.553 14.8463 212.649 11.5423 214.838 9.18861C217.032 6.83738 219.875 5.66271 223.37 5.66271C226.755 5.66271 229.52 6.81456 231.665 9.11828C233.811 11.4217 234.882 14.6638 234.884 18.8414Z" fill="white"></path><path d="M261.11 32.1976H256.629C254.726 29.8232 255.415 19.4965 255.415 19.4965C253.857 20.1292 251.522 20.6709 248.409 21.1151C246.645 21.3704 245.397 21.6571 244.667 21.9746C243.937 22.29 243.372 22.7564 242.975 23.3669C242.579 23.977 242.38 24.6578 242.38 25.4049C242.38 26.5461 242.814 27.5011 243.679 28.2625C244.547 29.0243 245.813 29.4059 247.481 29.4059C248.843 29.4059 250.073 29.1468 251.188 28.6548C251.401 30.5518 251.7 31.3386 251.953 31.849C250.38 32.3301 247.931 32.7658 246.456 32.7658C243.675 32.7658 241.537 32.0875 240.045 30.73C238.551 29.3712 237.804 27.6358 237.804 25.5231C237.804 24.2843 238.086 23.1534 238.651 22.1275C239.215 21.1026 239.954 20.283 240.867 19.6622C241.78 19.0417 242.81 18.5725 243.953 18.2553C244.794 18.0311 246.066 17.8195 247.765 17.612C251.229 17.1994 253.78 16.7049 255.415 16.1322C255.43 15.5452 255.438 15.1692 255.438 15.0116C255.438 13.2643 255.034 12.0334 254.224 11.3176C253.128 10.3479 251.499 9.86437 249.338 9.86437C247.322 9.86437 245.831 10.2198 244.871 10.925C244.03 11.5432 243.393 12.6019 242.934 14.0508H238.557C238.941 12.2825 239.561 10.8509 240.425 9.75872C241.298 8.65281 242.563 7.80385 244.213 7.20838C245.867 6.61292 247.78 6.31378 249.957 6.31378C252.117 6.31378 253.875 6.56884 255.226 7.07554C256.575 7.5841 257.569 8.22489 258.204 8.99509C258.84 9.76529 259.284 10.7383 259.537 11.9152C259.68 12.6457 259.753 13.9657 259.753 15.8706V21.5902C259.753 25.5771 259.844 28.1009 260.026 29.1571C260.209 30.2133 260.57 31.2264 261.11 32.1976Z" fill="white"></path><path d="M268.687 9.12237C268.335 8.6782 268.162 8.17776 268.162 7.6198C268.162 7.43725 268.193 7.26533 268.227 7.09248C268.821 6.74801 269.508 6.43293 270.378 6.17506C271.532 5.83278 272.767 5.66274 274.085 5.66274C276.07 5.66274 277.814 5.94906 279.317 6.51983C280.819 7.09248 281.928 7.86643 282.641 8.84418C283.353 9.81349 283.843 11.1126 284.112 12.7314H279.788C279.53 11.7205 279.034 10.8966 278.27 10.2845C277.357 9.55592 276.066 9.18864 274.398 9.18864C272.428 9.18864 271.021 9.51685 270.181 10.1664C270.175 10.1705 270.172 10.1723 270.168 10.177C269.514 9.89038 269.008 9.54342 268.687 9.12237ZM285.074 24.1087C285.074 25.5384 284.657 26.885 283.822 28.1475C282.988 29.411 281.784 30.3881 280.211 31.0792C278.638 31.771 276.859 32.1151 274.874 32.1151C271.584 32.1151 269.079 31.4324 267.354 30.0668C265.629 28.7011 264.531 26.6753 264.054 23.9921H268.439C268.747 25.36 269.348 26.4515 270.285 27.232C271.372 28.1369 272.895 28.5889 274.848 28.5889C276.818 28.5889 278.281 28.1888 279.233 27.3855C280.188 26.584 280.663 25.6444 280.663 24.5629C280.663 23.5936 280.244 22.8299 279.401 22.2739C278.814 21.8941 277.351 21.4086 275.016 20.821C271.87 20.0258 269.689 19.339 268.475 18.7583C267.261 18.1794 266.338 17.3757 265.71 16.3527C265.081 15.3277 264.768 14.1965 264.768 12.9552C264.768 12.4473 264.837 11.9572 264.943 11.482C264.949 11.4923 264.951 11.507 264.957 11.5174C265.584 12.5404 266.507 13.3438 267.721 13.9227C268.651 14.3668 270.131 14.8523 272.198 15.448C272.69 15.5909 273.34 15.7738 274.119 15.9897C274.174 16.0041 274.217 16.0169 274.271 16.0313C274.446 16.0791 274.576 16.1163 274.743 16.1601C274.79 16.1726 274.825 16.1823 274.874 16.1951C277.907 17.0066 280.024 17.6708 281.224 18.1853C282.423 18.7023 283.364 19.4516 284.048 20.4371C284.731 21.4249 285.074 22.6455 285.074 24.1087Z" fill="white"></path><path d="M311.198 6.53305L301.571 32.2712C300.537 35.0503 299.736 36.9658 299.163 38.0161C298.401 39.4293 297.525 40.4648 296.541 41.1247C295.558 41.7849 294.381 42.1146 293.016 42.1146C292.246 42.1146 291.382 41.9465 290.446 41.6417V37.7069C291.098 37.8479 291.708 37.9432 292.229 37.9432C293.181 37.9432 293.945 37.7857 294.516 37.4681C295.089 37.1487 295.487 36.6545 295.923 36.1337C296.969 34.8822 297.675 32.0492 297.675 32.0492L299.736 27.0517L306.908 6.53305H311.198ZM295.66 26.7323L288.01 6.53305H292.632L297.652 21.0355L295.66 26.7323Z" fill="white"></path></svg>